# xmcd CD database file
#
# Track frame offsets:
#	150
#	11965
#	29933
#	45234
#	64702
#
# Disc length: 1079 seconds
#
# Revision: 1
# Processed by: cddbd v1.5.2PL0 Copyright (c) Steve Scherf et al.
# Submitted via: CDex 1.51
#
DISCID=3f043505
DTITLE=Sarah Darling - Angels and Devils [CD 2)
DYEAR=2011
DGENRE=Country
TTITLE0=Stop The Bleeding
TTITLE1=Sorry Seems To Be The Hardest Word
TTITLE2=Something To Do With Your Hands
TTITLE3=Waiting On You
TTITLE4=I Found In You
EXTD=YEAR: 2011
EXTT0=
EXTT1=
EXTT2=
EXTT3=
EXTT4=
PLAYORDER=
